<svg width="149" height="23" viewBox="0 0 149 23" fill="none" xmlns="http://www.w3.org/2000/svg">
    <path
        d="M0.239845 0.62969C0.366821 0.855427 3.29434 5.93449 6.75092 11.9165L13.0292 22.7801H14.8633L16.6974 22.7871L22.8911 11.5144L29.0776 0.24876L26.4887 0.227598C24.2243 0.21349 23.8857 0.227598 23.8152 0.319304C23.7728 0.382792 21.8047 4.04395 19.4415 8.46697C16.8879 13.2427 15.1314 16.4665 15.0961 16.4171C15.0679 16.3748 13.0151 12.7136 10.5391 8.29061L6.03139 0.24876L3.01922 0.227598L0 0.21349L0.239845 0.62969Z"
        fill="white" />
    <path
        d="M35.7439 11.4368C32.2521 17.6093 29.381 22.6883 29.3739 22.7236C29.3598 22.7659 30.3545 22.7801 31.9699 22.773L34.587 22.7518L35.885 20.3181L37.183 17.8844L44.336 17.8632L51.489 17.8491L52.8364 20.297L54.1838 22.7518L57.1465 22.773L60.1093 22.7871L57.1677 17.6516C55.5523 14.8299 52.6389 9.75084 50.6989 6.3648L47.1718 0.21349H44.6323H42.0928L35.7439 11.4368ZM46.8896 9.19356L49.2881 13.7224L46.8403 13.7436C45.4859 13.7506 43.2779 13.7506 41.9235 13.7436L39.4615 13.7224L41.9376 9.1865C43.3061 6.69635 44.4348 4.65767 44.4559 4.65767C44.4771 4.65767 45.5705 6.69635 46.8896 9.19356Z"
        fill="white" />
    <path
        d="M66.4863 9.71535L66.5075 19.2245L66.6627 19.817C67.086 21.4184 67.7773 22.1167 69.308 22.5047C70.4085 22.7798 71.0293 22.7939 79.6919 22.7657C87.1059 22.7446 88.0794 22.7305 88.5944 22.6246C90.5766 22.2155 91.3667 21.4254 91.7688 19.4291C91.8676 18.9353 91.8887 17.7643 91.9099 9.53899L91.9381 0.213263H89.2928H86.6404V9.3838V18.5543H79.1628H71.6853V9.3838V0.213263H69.0753H66.4581L66.4863 9.71535Z"
        fill="white" />
    <path
        d="M103.43 11.5003V22.7871H114.505H125.58V20.6708V18.5546H117.115H108.65V9.38402V0.21349H106.04H103.43V11.5003Z"
        fill="white" />
    <path
        d="M122.97 2.22395V4.23442H128.155H133.34V13.5108V22.7871H135.985H138.63V13.5108V4.23442H143.815H149V2.22395V0.21349H135.985H122.97V2.22395Z"
        fill="white" />
</svg>