<svg xmlns="http://www.w3.org/2000/svg" width="19" height="24" viewBox="0 0 19 24" fill="none">
    <path
        d="M1.33472 3.14895C1.33472 2.25149 2.06225 1.52395 2.95972 1.52395H8.37638C9.27385 1.52395 10.0014 2.25149 10.0014 3.14895V11.8156C10.0014 12.7131 9.27385 13.4406 8.37638 13.4406H1.33472V3.14895Z"
        stroke="white" stroke-width="1.625" />
    <path
        d="M10.0015 3.69061H16.5407C17.4261 3.69061 17.9376 4.69508 17.4168 5.41113L15.2616 8.37457C14.7091 9.13432 14.7091 10.1636 15.2616 10.9233L17.4168 13.8868C17.9376 14.6028 17.4261 15.6073 16.5407 15.6073H11.0848C10.4865 15.6073 10.0015 15.1223 10.0015 14.5239V3.69061Z"
        stroke="#F8B653" stroke-width="1.625" />
    <path d="M1.33472 23.1906L1.33472 3.69061" stroke="white" stroke-width="1.625"
        stroke-linecap="round" stroke-linejoin="round" />
</svg>