<svg width="149" height="23" viewBox="0 0 149 23" fill="none" xmlns="http://www.w3.org/2000/svg">
<path d="M0.239845 0.62969C0.366821 0.855427 3.29434 5.93449 6.75092 11.9165L13.0292 22.7801H14.8633L16.6974 22.7871L22.8911 11.5144L29.0776 0.24876L26.4887 0.227598C24.2243 0.21349 23.8857 0.227598 23.8152 0.319304C23.7728 0.382792 21.8047 4.04395 19.4415 8.46697C16.8879 13.2427 15.1314 16.4665 15.0961 16.4171C15.0679 16.3748 13.0151 12.7136 10.5391 8.29061L6.03139 0.24876L3.01922 0.227598L0 0.21349L0.239845 0.62969Z" fill="white"/>
<path d="M35.7437 11.4368C32.2518 17.6093 29.3807 22.6883 29.3737 22.7236C29.3596 22.7659 30.3542 22.7801 31.9697 22.773L34.5868 22.7518L35.8848 20.3181L37.1827 17.8844L44.3358 17.8632L51.4888 17.8491L52.8361 20.297L54.1835 22.7518L57.1463 22.773L60.1091 22.7871L57.1675 17.6516C55.552 14.8299 52.6386 9.75084 50.6987 6.3648L47.1716 0.21349H44.632H42.0925L35.7437 11.4368ZM46.8894 9.19356L49.2879 13.7224L46.84 13.7436C45.4856 13.7506 43.2776 13.7506 41.9232 13.7436L39.4613 13.7224L41.9373 9.1865C43.3058 6.69635 44.4345 4.65767 44.4557 4.65767C44.4768 4.65767 45.5703 6.69635 46.8894 9.19356Z" fill="white"/>
<path d="M66.4862 9.71535L66.5074 19.2245L66.6626 19.817C67.0858 21.4184 67.7772 22.1167 69.3079 22.5047C70.4084 22.7798 71.0292 22.7939 79.6918 22.7657C87.1058 22.7446 88.0793 22.7305 88.5943 22.6246C90.5765 22.2155 91.3666 21.4254 91.7687 19.4291C91.8674 18.9353 91.8886 17.7643 91.9098 9.53899L91.938 0.213263H89.2926H86.6402V9.3838V18.5543H79.1627H71.6852V9.3838V0.213263H69.0751H66.458L66.4862 9.71535Z" fill="white"/>
<path d="M103.43 11.5003V22.7871H114.505H125.58V20.6708V18.5546H117.115H108.65V9.38402V0.21349H106.04H103.43V11.5003Z" fill="white"/>
<path d="M122.97 2.22395V4.23442H128.155H133.339V13.5108V22.7871H135.985H138.63V13.5108V4.23442H143.815H149V2.22395V0.21349H135.985H122.97V2.22395Z" fill="white"/>
</svg>
