<svg width="150" height="23" viewBox="0 0 150 23" fill="none" xmlns="http://www.w3.org/2000/svg">
<path d="M0.739845 0.62969C0.866821 0.855427 3.79434 5.93449 7.25092 11.9165L13.5292 22.7801H15.3633L17.1974 22.7871L23.3911 11.5144L29.5776 0.24876L26.9887 0.227598C24.7243 0.21349 24.3857 0.227598 24.3152 0.319304C24.2728 0.382792 22.3047 4.04395 19.9415 8.46697C17.3879 13.2427 15.6314 16.4665 15.5961 16.4171C15.5679 16.3748 13.5151 12.7136 11.0391 8.29061L6.53139 0.24876L3.51922 0.227598L0.5 0.21349L0.739845 0.62969Z" fill="#19253F"/>
<path d="M36.2439 11.4368C32.7521 17.6093 29.881 22.6883 29.8739 22.7236C29.8598 22.7659 30.8545 22.7801 32.4699 22.773L35.087 22.7518L36.385 20.3181L37.683 17.8844L44.836 17.8632L51.989 17.8491L53.3364 20.297L54.6838 22.7518L57.6465 22.773L60.6093 22.7871L57.6677 17.6516C56.0523 14.8299 53.1389 9.75084 51.1989 6.3648L47.6718 0.21349H45.1323H42.5928L36.2439 11.4368ZM47.3896 9.19356L49.7881 13.7224L47.3403 13.7436C45.9859 13.7506 43.7779 13.7506 42.4235 13.7436L39.9615 13.7224L42.4376 9.1865C43.8061 6.69635 44.9348 4.65767 44.9559 4.65767C44.9771 4.65767 46.0705 6.69635 47.3896 9.19356Z" fill="#19253F"/>
<path d="M66.9863 9.71535L67.0075 19.2245L67.1627 19.817C67.586 21.4184 68.2773 22.1167 69.808 22.5047C70.9085 22.7798 71.5293 22.7939 80.1919 22.7657C87.6059 22.7446 88.5794 22.7305 89.0944 22.6246C91.0766 22.2155 91.8667 21.4254 92.2688 19.4291C92.3676 18.9353 92.3887 17.7643 92.4099 9.53899L92.4381 0.213263H89.7928H87.1404V9.3838V18.5543H79.6628H72.1853V9.3838V0.213263H69.5753H66.9581L66.9863 9.71535Z" fill="#19253F"/>
<path d="M103.93 11.5003V22.7871H115.005H126.08V20.6708V18.5546H117.615H109.15V9.38402V0.21349H106.54H103.93V11.5003Z" fill="#19253F"/>
<path d="M123.47 2.22395V4.23442H128.655H133.84V13.5108V22.7871H136.485H139.13V13.5108V4.23442H144.315H149.5V2.22395V0.21349H136.485H123.47V2.22395Z" fill="#19253F"/>
</svg>
