<svg width="30" height="35" viewBox="0 0 30 35" fill="none" xmlns="http://www.w3.org/2000/svg">
<path d="M27.8334 6.91659C27.8334 9.44789 22.0877 11.4999 15.0001 11.4999C7.91243 11.4999 2.16675 9.44789 2.16675 6.91659M27.8334 6.91659C27.8334 4.38528 22.0877 2.33325 15.0001 2.33325C7.91243 2.33325 2.16675 4.38528 2.16675 6.91659M27.8334 6.91659V28.9166C27.8334 31.4479 22.0877 33.4999 15.0001 33.4999C7.91243 33.4999 2.16675 31.4479 2.16675 28.9166V6.91659M27.8334 14.2499C27.8334 16.7812 22.0877 18.8333 15.0001 18.8333C7.91243 18.8333 2.16675 16.7812 2.16675 14.2499M27.8334 21.5833C27.8334 24.1146 22.0877 26.1666 15.0001 26.1666C7.91243 26.1666 2.16675 24.1146 2.16675 21.5833" stroke="#2B3F6C" stroke-width="2.75"/>
</svg>
