<svg width="38" height="39" viewBox="0 0 38 39" fill="none" xmlns="http://www.w3.org/2000/svg">
<path d="M1.58337 18.0537C1.58337 15.8094 2.6111 13.6886 4.37265 12.2979L14.456 4.33742C17.1202 2.23405 20.8798 2.23405 23.5441 4.33741L33.6274 12.2979C35.389 13.6886 36.4167 15.8094 36.4167 18.0537V30.0833C36.4167 34.1334 33.1335 37.4167 29.0834 37.4167H26.3334C25.3209 37.4167 24.5 36.5959 24.5 35.5833V30.0833C24.5 28.0583 22.8584 26.4167 20.8334 26.4167H17.1667C15.1417 26.4167 13.5 28.0583 13.5 30.0833V35.5833C13.5 36.5959 12.6792 37.4167 11.6667 37.4167H8.91671C4.86662 37.4167 1.58337 34.1334 1.58337 30.0833L1.58337 18.0537Z" stroke="#2B3F6C" stroke-width="2.75"/>
</svg>
