<svg width="44" height="44" viewBox="0 0 44 44" fill="none" xmlns="http://www.w3.org/2000/svg">
<circle cx="7.33333" cy="7.33333" r="7.33333" transform="matrix(-1 0 0 1 25.6666 5.5)" stroke="#2B3F6C" stroke-width="2.75"/>
<path d="M5.5 31.0468C5.5 29.4695 6.49157 28.0625 7.977 27.5319V27.5319C14.6741 25.1401 21.9926 25.1401 28.6897 27.5319V27.5319C30.1751 28.0625 31.1667 29.4695 31.1667 31.0468V33.4586C31.1667 35.6355 29.2385 37.3078 27.0835 36.9999L25.3337 36.75C20.6904 36.0866 15.9763 36.0866 11.333 36.75L9.58322 36.9999C7.42813 37.3078 5.5 35.6355 5.5 33.4586V31.0468Z" stroke="#2B3F6C" stroke-width="2.75"/>
<path d="M31.1667 20.1667H38.5" stroke="#B6B6B6" stroke-width="2.75" stroke-linecap="round" stroke-linejoin="round"/>
<path d="M34.8334 16.4999L34.8334 23.8333" stroke="#B6B6B6" stroke-width="2.75" stroke-linecap="round" stroke-linejoin="round"/>
</svg>
