<svg width="44" height="44" viewBox="0 0 44 44" fill="none" xmlns="http://www.w3.org/2000/svg">
<path d="M9.16675 6.41675H34.8334V35.687C34.8334 37.2092 33.0856 38.0684 31.8803 37.1386L29.4404 35.2564C28.8266 34.7829 27.9813 34.7467 27.3292 35.1659L23.9829 37.3171C22.775 38.0936 21.2251 38.0936 20.0173 37.3171L16.6709 35.1659C16.0188 34.7467 15.1736 34.7829 14.5597 35.2564L12.1199 37.1386C10.9146 38.0684 9.16675 37.2092 9.16675 35.687V6.41675Z" stroke="#2B3F6C" stroke-width="2.75"/>
<path d="M16.5 17.4167H22" stroke="#B6B6B6" stroke-width="2.75" stroke-linecap="round" stroke-linejoin="round"/>
<path d="M5.5 6.41667H38.5" stroke="#2B3F6C" stroke-width="2.75" stroke-linecap="round" stroke-linejoin="round"/>
<path d="M16.5 24.7499H22" stroke="#B6B6B6" stroke-width="2.75" stroke-linecap="round" stroke-linejoin="round"/>
<path d="M27.5 17.4167H28.4167" stroke="#B6B6B6" stroke-width="2.75" stroke-linecap="round" stroke-linejoin="round"/>
<path d="M27.5 24.7499H28.4167" stroke="#B6B6B6" stroke-width="2.75" stroke-linecap="round" stroke-linejoin="round"/>
</svg>
