<svg width="44" height="44" viewBox="0 0 44 44" fill="none" xmlns="http://www.w3.org/2000/svg">
<circle cx="5.5" cy="5.5" r="5.5" transform="matrix(-1 0 0 1 27.5 16.5)" stroke="#2B3F6C" stroke-width="2.75"/>
<path d="M30.2501 9.05217L30.9376 7.86138H30.9376L30.2501 9.05217ZM30.2501 34.9474L30.9376 36.1381H30.9376L30.2501 34.9474ZM13.7499 34.9474L14.4374 33.7566L14.4374 33.7566L13.7499 34.9474ZM13.7499 9.05217L14.4374 10.2429L14.4374 10.2429L13.7499 9.05217ZM16.3586 5.52776L15.019 5.21779V5.21779L16.3586 5.52776ZM5.3284 17.7532L4.45405 18.8144L5.3284 17.7532ZM4.6865 15.9554L3.38833 15.5022L4.6865 15.9554ZM9.73833 34.3571L9.4227 33.0188L9.73833 34.3571ZM8.07208 33.9222L9.11624 33.0276L8.07208 33.9222ZM17.4884 39.7742L17.1511 41.1071L17.4884 39.7742ZM27.6413 38.4723L26.3016 38.1624L27.6413 38.4723ZM26.5115 39.7742L26.8488 41.1071L26.5115 39.7742ZM35.9278 33.9222L34.8837 33.0276L35.9278 33.9222ZM34.2616 34.3571L33.946 35.6954L34.2616 34.3571ZM39.3134 15.9554L38.0153 16.4086L39.3134 15.9554ZM38.6715 17.7532L37.7972 16.692L38.6715 17.7532ZM4.6865 28.0448L3.38833 28.498L4.6865 28.0448ZM5.3284 26.247L4.45405 25.1858L5.3284 26.247ZM34.2613 9.64249L34.5768 10.9808L34.2613 9.64249ZM35.9273 10.0774L34.8832 10.972L35.9273 10.0774ZM9.73867 9.64249L9.42312 10.9808L9.73867 9.64249ZM38.6715 26.247L39.5459 25.1858L38.6715 26.247ZM39.3134 28.0448L38.0153 27.5916L39.3134 28.0448ZM27.6414 5.52777L26.3018 5.83774L27.6414 5.52777ZM26.3018 5.83774C26.7157 7.62683 27.8444 9.25093 29.5626 10.2429L30.9376 7.86138C29.9066 7.26612 29.2303 6.29539 28.981 5.21779L26.3018 5.83774ZM29.5626 10.2429C31.141 11.1542 32.9336 11.3682 34.5768 10.9808L33.9457 8.30419C32.9573 8.53725 31.8855 8.40867 30.9376 7.86138L29.5626 10.2429ZM40.6116 15.5022C39.7947 13.1622 38.5497 11.0246 36.9715 9.18269L34.8832 10.972C36.2426 12.5585 37.3133 14.3978 38.0153 16.4086L40.6116 15.5022ZM38.0416 22.0001C38.0416 20.7179 38.625 19.5732 39.5459 18.8144L37.7972 16.692C36.2694 17.9508 35.2916 19.8618 35.2916 22.0001H38.0416ZM39.5459 25.1858C38.625 24.427 38.0416 23.2822 38.0416 22.0001H35.2916C35.2916 24.1383 36.2694 26.0494 37.7972 27.3081L39.5459 25.1858ZM36.972 34.8169C38.55 32.9751 39.7948 30.8377 40.6116 28.498L38.0153 27.5916C37.3134 29.6022 36.2428 31.4413 34.8837 33.0276L36.972 34.8169ZM30.9376 36.1381C31.8856 35.5908 32.9574 35.4623 33.946 35.6954L34.5772 33.0188C32.9339 32.6313 31.1411 32.8452 29.5626 33.7566L30.9376 36.1381ZM28.9809 38.7821C29.2302 37.7044 29.9064 36.7335 30.9376 36.1381L29.5626 33.7566C27.8442 34.7487 26.7155 36.3731 26.3016 38.1624L28.9809 38.7821ZM22 41.7084C23.6714 41.7084 25.2962 41.5 26.8488 41.1071L26.1742 38.4412C24.8403 38.7787 23.4421 38.9584 22 38.9584V41.7084ZM17.1511 41.1071C18.7038 41.5 20.3285 41.7084 22 41.7084V38.9584C20.5578 38.9584 19.1596 38.7787 17.8257 38.4412L17.1511 41.1071ZM13.0624 36.1381C14.0935 36.7335 14.7698 37.7044 15.019 38.7821L17.6983 38.1624C17.2845 36.3731 16.1558 34.7487 14.4374 33.7566L13.0624 36.1381ZM10.054 35.6954C11.0425 35.4622 12.1143 35.5908 13.0624 36.1381L14.4374 33.7566C12.8588 32.8452 11.066 32.6313 9.4227 33.0188L10.054 35.6954ZM3.38833 28.498C4.20512 30.8377 5.44992 32.9751 7.02792 34.8169L9.11624 33.0276C7.75709 31.4413 6.68657 29.6022 5.98467 27.5916L3.38833 28.498ZM5.95829 22.0001C5.95829 23.2822 5.37495 24.427 4.45405 25.1858L6.20276 27.3081C7.73048 26.0494 8.70829 24.1383 8.70829 22.0001H5.95829ZM4.45405 18.8144C5.37495 19.5732 5.95829 20.7179 5.95829 22.0001H8.70829C8.70829 19.8618 7.73048 17.9508 6.20275 16.692L4.45405 18.8144ZM7.02845 9.18269C5.4502 11.0246 4.20521 13.1622 3.38833 15.5022L5.98467 16.4086C6.68665 14.3978 7.75733 12.5585 9.11669 10.972L7.02845 9.18269ZM13.0624 7.86138C12.1144 8.40868 11.0427 8.53725 10.0542 8.30419L9.42312 10.9808C11.0663 11.3682 12.859 11.1542 14.4374 10.2429L13.0624 7.86138ZM15.019 5.21779C14.7696 6.29538 14.0934 7.26612 13.0624 7.86138L14.4374 10.2429C16.1556 9.25093 17.2842 7.62683 17.6982 5.83773L15.019 5.21779ZM22 2.29175C20.3284 2.29175 18.7036 2.50014 17.1509 2.89306L17.8256 5.55903C19.1595 5.22146 20.5578 5.04175 22 5.04175V2.29175ZM26.849 2.89307C25.2963 2.50015 23.6715 2.29175 22 2.29175V5.04175C23.4421 5.04175 24.8404 5.22146 26.1744 5.55903L26.849 2.89307ZM17.6982 5.83773C17.7268 5.71404 17.7753 5.62679 17.8129 5.58104C17.8452 5.54173 17.851 5.5526 17.8256 5.55903L17.1509 2.89306C15.8838 3.21373 15.2295 4.30808 15.019 5.21779L17.6982 5.83773ZM6.20275 16.692C6.09114 16.6001 6.02625 16.5006 6.00023 16.434C5.97834 16.378 5.99445 16.3805 5.98467 16.4086L3.38833 15.5022C2.90065 16.8991 3.65625 18.1571 4.45405 18.8144L6.20275 16.692ZM9.4227 33.0188C9.29945 33.0479 9.19995 33.0431 9.14227 33.0297C9.09267 33.0181 9.09949 33.0081 9.11624 33.0276L7.02792 34.8169C7.87684 35.8077 9.14543 35.9097 10.054 35.6954L9.4227 33.0188ZM17.8257 38.4412C17.8511 38.4476 17.8454 38.4585 17.813 38.4192C17.7754 38.3734 17.7269 38.2861 17.6983 38.1624L15.019 38.7821C15.2295 39.6919 15.8838 40.7865 17.1511 41.1071L17.8257 38.4412ZM26.3016 38.1624C26.273 38.2861 26.2245 38.3734 26.1869 38.4192C26.1546 38.4585 26.1488 38.4476 26.1742 38.4412L26.8488 41.1071C28.1161 40.7864 28.7705 39.6919 28.9809 38.7821L26.3016 38.1624ZM34.8837 33.0276C34.9004 33.0081 34.9073 33.0181 34.8576 33.0297C34.8 33.0431 34.7005 33.0479 34.5772 33.0188L33.946 35.6954C34.8545 35.9097 36.1231 35.8077 36.972 34.8169L34.8837 33.0276ZM38.0153 16.4086C38.0055 16.3805 38.0216 16.378 37.9997 16.434C37.9737 16.5006 37.9088 16.6001 37.7972 16.692L39.5459 18.8144C40.3437 18.1571 41.0993 16.8991 40.6116 15.5022L38.0153 16.4086ZM5.98467 27.5916C5.99445 27.6196 5.97834 27.6221 6.00023 27.5662C6.02625 27.4996 6.09114 27.4001 6.20276 27.3081L4.45405 25.1858C3.65625 25.8431 2.90065 27.101 3.38833 28.498L5.98467 27.5916ZM34.5768 10.9808C34.7 10.9517 34.7995 10.9565 34.8572 10.9699C34.9068 10.9815 34.9 10.9916 34.8832 10.972L36.9715 9.18269C36.1226 8.19203 34.8542 8.08999 33.9457 8.30419L34.5768 10.9808ZM9.11669 10.972C9.09995 10.9916 9.09313 10.9815 9.14272 10.9699C9.2004 10.9565 9.29988 10.9517 9.42312 10.9808L10.0542 8.30419C9.14575 8.08998 7.87732 8.19202 7.02845 9.18269L9.11669 10.972ZM37.7972 27.3081C37.9088 27.4001 37.9737 27.4996 37.9997 27.5662C38.0216 27.6221 38.0055 27.6196 38.0153 27.5916L40.6116 28.498C41.0993 27.101 40.3437 25.8431 39.5459 25.1858L37.7972 27.3081ZM28.981 5.21779C28.7705 4.30809 28.1162 3.21374 26.849 2.89307L26.1744 5.55903C26.149 5.55261 26.1547 5.54174 26.187 5.58104C26.2247 5.6268 26.2731 5.71405 26.3018 5.83774L28.981 5.21779Z" fill="#2B3F6C"/>
</svg>
