<svg xmlns="http://www.w3.org/2000/svg" width="27" height="27" viewBox="0 0 27 27" fill="none">
    <g clip-path="url(#clip0_1229_4511)">
      <path d="M26.5039 13.5893C26.5039 6.30622 20.5998 0.402107 13.3167 0.402107C6.03357 0.402107 0.129456 6.30622 0.129456 13.5893C0.129456 20.1714 4.95183 25.627 11.2562 26.6163V17.4012H7.90785V13.5893H11.2562V10.684C11.2562 7.37897 13.2249 5.55336 16.2372 5.55336C17.68 5.55336 19.1891 5.81092 19.1891 5.81092V9.05622H17.5262C15.888 9.05622 15.3772 10.0727 15.3772 11.1156V13.5893H19.0346L18.4499 17.4012H15.3772V26.6163C21.6815 25.627 26.5039 20.1714 26.5039 13.5893Z" fill="white"/>
      <path d="M18.4494 17.4011L19.0341 13.5892H15.3767V11.1154C15.3767 10.0726 15.8875 9.05605 17.5257 9.05605H19.1886V5.81076C19.1886 5.81076 17.6795 5.55319 16.2367 5.55319C13.2244 5.55319 11.2557 7.3788 11.2557 10.6838V13.5892H7.90735V17.4011H11.2557V26.6162C11.9271 26.7215 12.6152 26.7764 13.3162 26.7764C14.0172 26.7764 14.7053 26.7215 15.3767 26.6162V17.4011H18.4494Z" fill="#19253F"/>
    </g>
    <defs>
      <clipPath id="clip0_1229_4511">
        <rect width="26.3744" height="26.3744" fill="white" transform="translate(0.129089 0.401855)"/>
      </clipPath>
    </defs>
  </svg>