<svg width="32" height="33" viewBox="0 0 32 33" fill="none" xmlns="http://www.w3.org/2000/svg">
  <path
    d="M7.50469 10.9897H1.12036C0.837013 10.9897 0.607422 11.2199 0.607422 11.5038V32.0576C0.607422 32.3416 0.837013 32.5716 1.12036 32.5716H7.50469C7.78804 32.5716 8.01763 32.3416 8.01763 32.0576V11.5038C8.01763 11.2199 7.78804 10.9897 7.50469 10.9897Z"
    fill="white" />
  <path
    d="M4.31409 0.772461C1.99109 0.772461 0.101227 2.6643 0.101227 4.98967C0.101227 7.31607 1.99109 9.20863 4.31409 9.20863C6.63523 9.20863 8.52356 7.31597 8.52356 4.98967C8.52366 2.6643 6.63523 0.772461 4.31409 0.772461Z"
    fill="white" />
  <path
    d="M23.7384 10.4795C21.1742 10.4795 19.2787 11.5841 18.129 12.8393V11.5044C18.129 11.2205 17.8994 10.9903 17.6161 10.9903H11.502C11.2186 10.9903 10.989 11.2205 10.989 11.5044V32.0582C10.989 32.3421 11.2186 32.5722 11.502 32.5722H17.8723C18.1557 32.5722 18.3853 32.3421 18.3853 32.0582V21.8888C18.3853 18.462 19.3141 17.1269 21.6978 17.1269C24.2939 17.1269 24.5002 19.2672 24.5002 22.0651V32.0583C24.5002 32.3422 24.7298 32.5723 25.0131 32.5723H31.3859C31.6692 32.5723 31.8988 32.3422 31.8988 32.0583V20.7842C31.8988 15.6886 30.9293 10.4795 23.7384 10.4795Z"
    fill="white" />
</svg>