<svg xmlns="http://www.w3.org/2000/svg" width="33" height="33" viewBox="0 0 33 33" fill="none">
  <g clip-path="url(#clip0_67_1475)">
    <path d="M9.47454 0.469383C7.77214 0.549703 6.60958 0.821383 5.59326 1.22074C4.54142 1.63066 3.6499 2.18074 2.76286 3.07098C1.87582 3.96122 1.32958 4.85338 0.92254 5.90682C0.52862 6.92538 0.26174 8.0889 0.18654 9.79226C0.11134 11.4956 0.0947002 12.0431 0.10302 16.3881C0.11134 20.7331 0.13054 21.2777 0.2131 22.9846C0.29438 24.6867 0.5651 25.8489 0.96446 26.8655C1.37502 27.9174 1.92446 28.8086 2.81502 29.6959C3.70558 30.5833 4.5971 31.1283 5.6531 31.5359C6.6707 31.9292 7.83454 32.1974 9.53758 32.2719C11.2406 32.3465 11.7888 32.3638 16.1325 32.3555C20.4761 32.3471 21.023 32.3279 22.7296 32.247C24.4361 32.166 25.5923 31.8934 26.6093 31.4959C27.6611 31.0844 28.5529 30.5359 29.4397 29.6451C30.3264 28.7542 30.8723 27.8614 31.279 26.8073C31.6733 25.7897 31.9411 24.6259 32.015 22.9241C32.0896 21.2163 32.1072 20.671 32.0989 16.3267C32.0905 11.9823 32.071 11.4377 31.9901 9.73146C31.9091 8.02522 31.6381 6.8665 31.239 5.84922C30.8278 4.79738 30.279 3.90682 29.3888 3.01882C28.4985 2.13082 27.6051 1.58522 26.5513 1.17946C25.5331 0.785543 24.3699 0.517063 22.6669 0.443463C20.9638 0.369863 20.4157 0.350983 16.0704 0.359303C11.7251 0.367623 11.1811 0.386183 9.47454 0.469383ZM9.66142 29.3935C8.10142 29.3257 7.25438 29.0665 6.6899 28.8495C5.94238 28.5615 5.4099 28.2134 4.84734 27.6563C4.28478 27.0991 3.93918 26.5647 3.64734 25.8188C3.42814 25.2543 3.16414 24.4083 3.09118 22.8483C3.01182 21.1622 2.99518 20.6559 2.9859 16.3843C2.97662 12.1126 2.99294 11.607 3.06686 9.92026C3.13342 8.36154 3.39422 7.51354 3.61086 6.94938C3.89886 6.2009 4.24574 5.66938 4.80414 5.10714C5.36254 4.5449 5.89534 4.19866 6.6419 3.90682C7.20574 3.68666 8.05182 3.4249 9.61118 3.35066C11.2985 3.27066 11.8041 3.25466 16.0752 3.24538C20.3462 3.2361 20.8531 3.2521 22.5411 3.32634C24.0998 3.39418 24.9481 3.65242 25.5117 3.87034C26.2595 4.15834 26.7917 4.50426 27.3539 5.06362C27.9161 5.62298 28.2627 6.15386 28.5545 6.90202C28.775 7.46426 29.0368 8.31002 29.1104 9.87034C29.1907 11.5577 29.2089 12.0636 29.2166 16.3343C29.2243 20.6051 29.2093 21.1123 29.1353 22.7983C29.0672 24.3583 28.8086 25.2057 28.5913 25.7708C28.3033 26.518 27.9561 27.0508 27.3974 27.6127C26.8387 28.1747 26.3065 28.5209 25.5597 28.8127C24.9965 29.0326 24.1494 29.295 22.5913 29.3692C20.904 29.4486 20.3984 29.4652 16.1257 29.4745C11.8531 29.4838 11.3491 29.4665 9.66174 29.3935M22.7049 7.80602C22.7056 8.18579 22.8188 8.55684 23.0303 8.87224C23.2419 9.18765 23.5422 9.43324 23.8933 9.57795C24.2444 9.72267 24.6305 9.76001 25.0029 9.68525C25.3752 9.6105 25.717 9.427 25.9851 9.15797C26.2531 8.88895 26.4354 8.54647 26.5087 8.17386C26.5821 7.80125 26.5434 7.41525 26.3974 7.06467C26.2514 6.71409 26.0047 6.41468 25.6885 6.20431C25.3723 5.99394 25.0009 5.88206 24.6211 5.88282C24.112 5.88384 23.6241 6.08701 23.2648 6.44767C22.9055 6.80832 22.7041 7.29692 22.7049 7.80602ZM7.88574 16.3734C7.8947 20.911 11.5798 24.5811 16.1165 24.5724C20.6531 24.5638 24.3257 20.879 24.3171 16.3414C24.3085 11.8038 20.6224 8.13274 16.0851 8.1417C11.5478 8.15066 7.8771 11.8364 7.88574 16.3734ZM10.7677 16.3676C10.7656 15.3128 11.0763 14.281 11.6606 13.4028C12.245 12.5245 13.0766 11.8393 14.0503 11.4337C15.0241 11.0281 16.0962 10.9203 17.1312 11.1241C18.1662 11.3278 19.1176 11.8339 19.8649 12.5783C20.6123 13.3227 21.1221 14.272 21.33 15.3062C21.5378 16.3404 21.4343 17.413 21.0326 18.3883C20.6308 19.3637 19.9489 20.198 19.073 20.7858C18.1971 21.3736 17.1665 21.6884 16.1117 21.6905C15.4112 21.692 14.7174 21.5555 14.0697 21.2887C13.4221 21.022 12.8333 20.6303 12.3371 20.136C11.8408 19.6417 11.4468 19.0545 11.1775 18.4079C10.9082 17.7614 10.769 17.068 10.7677 16.3676Z" fill="white"/>
  </g>
  <defs>
    <clipPath id="clip0_67_1475">
      <rect width="32" height="32" fill="white" transform="translate(0.101318 0.357361)"/>
    </clipPath>
  </defs>
</svg>