<svg xmlns="http://www.w3.org/2000/svg" width="32" height="33" viewBox="0 0 32 33" fill="none">
  <path d="M7.50469 10.5748H1.12036C0.837013 10.5748 0.607422 10.805 0.607422 11.0888V31.6426C0.607422 31.9266 0.837013 32.1567 1.12036 32.1567H7.50469C7.78804 32.1567 8.01763 31.9266 8.01763 31.6426V11.0888C8.01763 10.805 7.78804 10.5748 7.50469 10.5748Z" fill="white"/>
  <path d="M4.31418 0.357361C1.99119 0.357361 0.101318 2.2492 0.101318 4.57457C0.101318 6.90097 1.99119 8.79353 4.31418 8.79353C6.63532 8.79353 8.52365 6.90087 8.52365 4.57457C8.52375 2.2492 6.63532 0.357361 4.31418 0.357361Z" fill="white"/>
  <path d="M23.7384 10.0645C21.1742 10.0645 19.2787 11.1691 18.129 12.4243V11.0894C18.129 10.8055 17.8994 10.5753 17.6161 10.5753H11.502C11.2186 10.5753 10.989 10.8055 10.989 11.0894V31.6432C10.989 31.9271 11.2186 32.1572 11.502 32.1572H17.8723C18.1557 32.1572 18.3853 31.9271 18.3853 31.6432V21.4738C18.3853 18.047 19.3141 16.7119 21.6978 16.7119C24.2939 16.7119 24.5002 18.8521 24.5002 21.6501V31.6433C24.5002 31.9272 24.7298 32.1573 25.0131 32.1573H31.3859C31.6692 32.1573 31.8988 31.9272 31.8988 31.6433V20.3692C31.8988 15.2736 30.9293 10.0645 23.7384 10.0645Z" fill="white"/>
</svg>